# xmcd
# Track frame offsets:
# 150
# 12927
# 31239
# 43820
# 58774
# 71331
# 84740
# 100835
# 114301
# 130577
# 142517
# 161493
# 174940
# 194095
# 210967
#
# Disc length: 2967 seconds
# Revision: 0
# Processed by: cddbd v1.5.1PL0 Copyright (c) Steve Scherf et al.
# Submitted via: VisiTrax 2.9.10.228 - For more info visit www.synapsa.com
#
DISCID=bd0b950f
DTITLE=Price, Ray - CB90076
DYEAR=1900
DGENRE=Karaoke
TTITLE0=Heartaches By The Numbers
TTITLE1=You're The Best Thing That's Ever
TTITLE2=My Shoes Keep Walking Back To You
TTITLE3=City Lights
TTITLE4=Crazy Arms
TTITLE5=Invitation To The Blues
TTITLE6=Touch My Heart
TTITLE7=I've Got A New Heartache
TTITLE8=Soft Rain
TTITLE9=Same Old Me, The
TTITLE10=For The Good Times
TTITLE11=One More Time
TTITLE12=I Won't Mention It Again
TTITLE13=Night Life
TTITLE14=I'll Be There If You Ever Want Me
EXTD=
EXTT0=
EXTT1=
EXTT2=
EXTT3=
EXTT4=
EXTT5=
EXTT6=
EXTT7=
EXTT8=
EXTT9=
EXTT10=
EXTT11=
EXTT12=
EXTT13=
EXTT14=
PLAYORDER=
